<?xml version="1.0" encoding="UTF-8"?>
<svg version="1.1" xmlns="http://www.w3.org/2000/svg" width="512" height="512">
<path d="M0 0 C1.77961834 -0.00644507 3.55923567 -0.01317462 5.33885193 -0.02017212 C9.05803884 -0.03209203 12.77713326 -0.03585863 16.49633789 -0.03466797 C21.2105576 -0.03446555 25.92416928 -0.06171167 30.63824558 -0.09621239 C34.31309103 -0.11869874 37.98779544 -0.12249888 41.66270256 -0.12144852 C43.39785789 -0.12377412 45.13301901 -0.13242089 46.86810493 -0.14811325 C77.51519587 -0.39926915 104.81573444 10.48628296 126.80859375 32.0859375 C141.44018032 46.88237023 151.06763525 65.07724287 155.62109375 85.3359375 C155.80655762 86.1304834 155.99202148 86.9250293 156.18310547 87.74365234 C158.47001596 99.12924332 157.97922321 110.87805163 158.00195312 122.44189453 C158.01153651 125.34709818 158.04535303 128.25127896 158.08203125 131.15625 C158.07446304 132.46603317 158.07446304 132.46603317 158.06674194 133.80227661 C158.20043959 142.28410804 160.80122319 150.4513025 166.67578125 156.75390625 C171.6802046 160.82376862 177.92452536 163.15077905 183.78515625 165.7265625 C192.19225255 169.60021193 198.72122324 174.50402406 202.62109375 183.1484375 C205.96827534 195.00271864 202.00896957 206.15331072 198.46630859 217.41796875 C195.02960399 228.45282978 191.74235361 239.30871193 197.32861328 250.21826172 C199.63638778 253.99945477 202.28048044 257.453577 205.05859375 260.8984375 C214.3008755 272.50180849 219.31320162 281.13731836 217.62109375 296.3359375 C215.64809294 303.324417 211.25337154 307.97475363 206.42578125 313.203125 C201.45118557 319.08219262 201.25466397 325.31425099 201.02734375 332.796875 C201.61147139 336.27858318 202.55644813 338.44920342 204.15820312 341.55712891 C204.61690796 342.4533194 205.07561279 343.34950989 205.54821777 344.27285767 C205.90226685 344.95367401 206.25631592 345.63449036 206.62109375 346.3359375 C207.79571671 346.33958313 208.97033966 346.34322876 210.18055725 346.34698486 C221.25979916 346.38395431 232.33876363 346.4417486 243.41779423 346.51984024 C249.11342063 346.55931961 254.80889231 346.591506 260.50463867 346.60693359 C266.00318484 346.6220969 271.50130568 346.6565373 276.9996624 346.70424652 C279.09552752 346.71906356 281.19145336 346.7269787 283.28737068 346.72782135 C286.22727732 346.73019172 289.16600922 346.75727781 292.10571289 346.79003906 C292.96886612 346.7850087 293.83201935 346.77997833 294.72132874 346.77479553 C300.49734637 346.87413285 303.86141496 348.02219704 308.62109375 351.3359375 C312.70778296 355.74526007 313.74684918 358.89733937 313.74134827 364.82182312 C313.74341026 366.53187531 313.74341026 366.53187531 313.74551392 368.276474 C313.74191864 369.52803787 313.73832336 370.77960175 313.73461914 372.0690918 C313.73476517 373.3862619 313.73491119 374.70343201 313.73506165 376.06051636 C313.7353489 379.67387344 313.7294637 383.28719741 313.72248769 386.90054679 C313.71624228 390.67619392 313.71564941 394.45184179 313.71446228 398.22749329 C313.71135248 405.37788451 313.7031438 412.52826046 313.69311279 419.67864496 C313.68194078 427.81882356 313.67643846 435.95900289 313.67141736 444.09918725 C313.66096091 460.84477961 313.64336823 477.59035661 313.62109375 494.3359375 C314.20600586 494.32546387 314.79091797 494.31499023 315.39355469 494.30419922 C318.05269038 494.26253486 320.71175728 494.23657849 323.37109375 494.2109375 C324.29148437 494.19417969 325.211875 494.17742187 326.16015625 494.16015625 C327.04960937 494.15371094 327.9390625 494.14726562 328.85546875 494.140625 C329.67241211 494.13015137 330.48935547 494.11967773 331.33105469 494.10888672 C333.90902994 494.36448554 335.44712694 494.93755746 337.62109375 496.3359375 C339.74921467 499.52811888 339.91970605 501.44013182 340.08203125 505.203125 C339.35384214 508.5725424 338.15986452 509.98007431 335.62109375 512.3359375 C332.31704076 513.09883447 329.05425589 513.00584779 325.67602539 512.96412659 C324.1438001 512.97476817 324.1438001 512.97476817 322.58062077 512.98562473 C319.147118 513.00327059 315.71473736 512.98506549 312.28125 512.96704102 C309.82412194 512.97217728 307.36699755 512.97945633 304.90988159 512.98872375 C298.92247148 513.00535427 292.93550369 512.99857839 286.94813132 512.98063553 C282.08267649 512.96661701 277.21731025 512.9627151 272.35183716 512.9660778 C271.6596937 512.96655525 270.96755024 512.96703269 270.25443274 512.9675246 C268.84841178 512.96855092 267.44239084 512.96960627 266.03636992 512.97069036 C253.60002767 512.97926044 241.16384297 512.96257253 228.72753906 512.93286133 C216.6565082 512.90402312 204.58570431 512.89693993 192.51464844 512.91235352 C179.37406568 512.92910977 166.23359073 512.9331558 153.09300518 512.91564316 C151.69212025 512.91379874 150.2912353 512.91196402 148.89035034 512.91013908 C147.85642319 512.90877095 147.85642319 512.90877095 146.80160862 512.90737518 C141.94129849 512.90176618 137.08104093 512.90508033 132.22073364 512.91168404 C125.6806212 512.92021721 119.1407882 512.90727669 112.60071182 512.87983513 C110.196463 512.87293215 107.79218366 512.87287365 105.38793564 512.88005066 C102.11364159 512.88870056 98.84037036 512.87286402 95.56616211 512.8506012 C94.60780488 512.85884196 93.64944765 512.86708273 92.66204929 512.87557322 C86.28045269 512.79512341 86.28045269 512.79512341 83.06202698 510.55377102 C81.65649965 508.39043301 81.16777571 506.81820726 80.62109375 504.3359375 C79.49703534 504.33870288 78.37297693 504.34146826 77.21485615 504.34431744 C49.88258584 504.41087266 22.55032602 504.46019413 -4.78200817 504.49137402 C-17.99963953 504.50685257 -31.21721741 504.52796103 -44.43481445 504.56225586 C-55.95329219 504.59212789 -67.4717312 504.61150531 -78.99024659 504.61820298 C-85.09099611 504.62211895 -91.19163481 504.63134266 -97.29234886 504.65312767 C-103.03209118 504.67345804 -108.77167682 504.67977825 -114.51145172 504.67526054 C-116.62019769 504.67608729 -118.72894878 504.68207336 -120.83766365 504.69355392 C-123.71315169 504.7084439 -126.58804543 504.70490375 -129.46354675 504.69670105 C-130.30110022 504.70543957 -131.13865369 504.7141781 -132.00158757 504.72318143 C-136.61236575 504.68754455 -139.63274576 504.32954107 -143.37890625 501.3359375 C-144.74527781 498.60319438 -144.52880329 496.40758358 -144.5559082 493.34838867 C-144.56874344 492.08915085 -144.58157867 490.82991302 -144.59480286 489.53251648 C-144.60297754 488.14798376 -144.61041986 486.76344656 -144.6171875 485.37890625 C-144.62126303 484.6798498 -144.62533855 483.98079334 -144.62953758 483.26055336 C-144.65042295 479.54976319 -144.66470549 475.8390101 -144.67407227 472.12817383 C-144.68505191 468.32680094 -144.71934422 464.52602727 -144.75924397 460.72486401 C-144.78564511 457.77766479 -144.79378537 454.83060207 -144.79735374 451.88329506 C-144.80217129 450.48450048 -144.81364396 449.08570994 -144.83239174 447.6870327 C-144.97292176 436.49332131 -143.34192676 426.73379529 -138.06640625 416.7734375 C-136.21527274 413.6909026 -136.21527274 413.6909026 -136.45239258 411.44726562 C-137.80652985 408.36147403 -140.09200455 406.37484526 -142.515625 404.1171875 C-143.57921469 403.09160054 -144.6423505 402.06554272 -145.70507812 401.0390625 C-147.37320233 399.44467158 -149.04561067 397.85547672 -150.72729492 396.27539062 C-158.74075719 388.71592525 -166.62619691 380.79283059 -168.17578125 369.3046875 C-168.05319667 360.23342885 -166.11737285 354.04029029 -161.37890625 346.3359375 C-160.60504953 344.98349631 -159.83368391 343.629622 -159.06640625 342.2734375 C-158.50953125 341.3040625 -157.95265625 340.3346875 -157.37890625 339.3359375 C-155.02893919 332.28603633 -155.21597927 323.77384541 -158.37890625 317.0234375 C-160.38464934 313.52198313 -162.77129266 310.67042861 -165.50390625 307.7109375 C-172.0996861 300.5551386 -172.98881993 294.41375914 -172.7109375 284.71875 C-171.81852914 275.62668369 -166.43076137 269.4900151 -160.921875 262.55859375 C-158.65701983 259.70821963 -156.48875023 256.80387317 -154.37890625 253.8359375 C-153.84265625 253.083125 -153.30640625 252.3303125 -152.75390625 251.5546875 C-148.0212303 243.91786949 -148.34005857 235.35920032 -150.12060547 226.74951172 C-151.09802784 223.22284626 -152.17441836 219.75015618 -153.31640625 216.2734375 C-154.05619386 213.92886019 -154.79453405 211.58382555 -155.53125 209.23828125 C-155.86116943 208.22241943 -156.19108887 207.20655762 -156.53100586 206.15991211 C-159.17696731 197.34740532 -159.54850167 189.21028105 -155.6796875 180.71484375 C-149.99822087 170.32441378 -140.8895535 166.63329483 -130.49609375 162.0703125 C-123.00793088 158.63537541 -118.17640593 154.40909362 -114.81225586 146.78588867 C-113.09237509 142.08396058 -112.95485627 137.74679127 -112.97265625 132.78125 C-112.96182007 131.88082977 -112.95098389 130.98040955 -112.93981934 130.05270386 C-112.90580037 127.18870913 -112.89004146 124.32510666 -112.87890625 121.4609375 C-112.74018421 86.44266823 -105.27178163 56.38720387 -80.12890625 30.6484375 C-58.17963624 8.95472586 -30.28191627 0.02601372 0 0 Z " fill="#DFB6A3" transform="translate(172.37890625,-0.3359375)"/>
<path d="M0 0 C1.77961834 -0.00644507 3.55923567 -0.01317462 5.33885193 -0.02017212 C9.05803884 -0.03209203 12.77713326 -0.03585863 16.49633789 -0.03466797 C21.2105576 -0.03446555 25.92416928 -0.06171167 30.63824558 -0.09621239 C34.31309103 -0.11869874 37.98779544 -0.12249888 41.66270256 -0.12144852 C43.39785789 -0.12377412 45.13301901 -0.13242089 46.86810493 -0.14811325 C77.51519587 -0.39926915 104.81573444 10.48628296 126.80859375 32.0859375 C141.44018032 46.88237023 151.06763525 65.07724287 155.62109375 85.3359375 C155.80655762 86.1304834 155.99202148 86.9250293 156.18310547 87.74365234 C158.47001596 99.12924332 157.97922321 110.87805163 158.00195312 122.44189453 C158.01153651 125.34709818 158.04535303 128.25127896 158.08203125 131.15625 C158.07446304 132.46603317 158.07446304 132.46603317 158.06674194 133.80227661 C158.20043959 142.28410804 160.80122319 150.4513025 166.67578125 156.75390625 C171.6802046 160.82376862 177.92452536 163.15077905 183.78515625 165.7265625 C192.19225255 169.60021193 198.72122324 174.50402406 202.62109375 183.1484375 C205.96827534 195.00271864 202.00896957 206.15331072 198.46630859 217.41796875 C195.02960399 228.45282978 191.74235361 239.30871193 197.32861328 250.21826172 C199.63638778 253.99945477 202.28048044 257.453577 205.05859375 260.8984375 C214.3008755 272.50180849 219.31320162 281.13731836 217.62109375 296.3359375 C215.64809294 303.324417 211.25337154 307.97475363 206.42578125 313.203125 C201.47391102 319.05533527 201.25627373 325.24945558 201.02734375 332.69921875 C201.61433685 336.29455151 202.62595765 338.78290871 204.15820312 342.06323242 C204.84626038 343.54541512 204.84626038 343.54541512 205.54821777 345.05754089 C205.90226685 345.80941177 206.25631592 346.56128265 206.62109375 347.3359375 C205.54891602 347.33736252 204.47673828 347.33878754 203.37207031 347.34025574 C193.24964816 347.35695182 183.12762667 347.39980525 173.00541687 347.46802807 C167.80189288 347.50226522 162.59866147 347.52740299 157.39501953 347.53149414 C152.36970655 347.53578406 147.34505322 347.56430465 142.31994629 347.60936928 C140.40632983 347.62232205 138.49263434 347.62665985 136.57897949 347.62209129 C133.89047719 347.61716943 131.20389118 347.64334664 128.515625 347.67651367 C127.33849693 347.66357521 127.33849693 347.66357521 126.1375885 347.65037537 C120.31909522 347.7700882 116.03669849 349.48474805 111.62109375 353.3359375 C107.04818351 360.00703432 106.86465808 367.45663146 106.62109375 375.3359375 C91.37031666 371.13644816 79.69975202 361.64606457 71.3125 348.328125 C65.72869662 338.45008022 64.41779572 329.56250675 64.62109375 318.3359375 C65.5646875 317.86285156 66.50828125 317.38976562 67.48046875 316.90234375 C76.23145544 312.42778479 83.94179799 307.51276235 91.62109375 301.3359375 C92.52601563 300.64371094 92.52601563 300.64371094 93.44921875 299.9375 C111.99477235 285.39388165 123.75689143 259.97924014 127.19004822 237.12426758 C127.96585618 230.3059238 127.9290636 223.49307341 127.921875 216.640625 C127.92577221 215.07455331 127.93010895 213.50848266 127.93486023 211.94241333 C127.94225608 208.69008927 127.94207583 205.43787398 127.93676758 202.18554688 C127.93092056 198.01703646 127.94806031 193.84896286 127.97111225 189.68052483 C127.98581393 186.4600871 127.98672724 183.23975626 127.98360252 180.01929092 C127.98411554 178.4810816 127.98934963 176.94286627 127.99941444 175.40468979 C128.01171975 173.26542769 128.00502871 171.12704049 127.9934082 168.98779297 C127.99403763 167.77235809 127.99466705 166.55692322 127.99531555 165.30465698 C127.86995329 162.35679119 127.86995329 162.35679119 126.25382996 160.48928833 C124.02717184 158.91639617 121.74082822 158.08914659 119.18359375 157.1484375 C102.83482898 150.54187996 87.38512398 137.43772438 78.7265625 121.96484375 C77.55664031 120.02070362 77.55664031 120.02070362 74.62109375 118.3359375 C70.95774491 117.85810939 69.24777331 117.8973624 66.1875 120.0390625 C63.60030025 122.35454721 61.56175982 124.72187198 59.43359375 127.4609375 C42.79968677 148.04233468 12.18635465 173.19924424 -15.28515625 176.70703125 C-16.14109375 176.72894531 -16.99703125 176.75085938 -17.87890625 176.7734375 C-22.47775387 177.07791293 -25.50719875 178.12061545 -29.4921875 180.3515625 C-37.52524376 184.54272229 -47.74536999 184.35249943 -56.55859375 184.51171875 C-57.81671875 184.53556641 -59.07484375 184.55941406 -60.37109375 184.58398438 C-62.98290004 184.62733931 -65.59493688 184.65837597 -68.20703125 184.67773438 C-69.45742187 184.70544922 -70.7078125 184.73316406 -71.99609375 184.76171875 C-73.12644043 184.77630127 -74.25678711 184.79088379 -75.42138672 184.8059082 C-78.39957655 185.16123465 -78.39957655 185.16123465 -80.74462891 186.73999023 C-83.30358539 190.80473243 -82.94999523 194.73549302 -82.91015625 199.4453125 C-82.91398315 200.44492004 -82.91781006 201.44452759 -82.92175293 202.47442627 C-82.9244758 204.59607954 -82.91708847 206.71776616 -82.90039062 208.83935547 C-82.8792564 212.0330254 -82.90003844 215.22437521 -82.92578125 218.41796875 C-82.96152652 244.93357506 -75.0080618 270.14712951 -57.37890625 290.3359375 C-56.86199219 290.9959375 -56.34507813 291.6559375 -55.8125 292.3359375 C-46.97939189 303.31644282 -32.77704838 313.86989012 -19.37890625 318.3359375 C-18.21104401 333.95933905 -23.53753327 346.72595145 -33.3359375 358.734375 C-45.77201798 372.25486324 -63.5629665 376.84364195 -80.44140625 382.3984375 C-109.84128903 391.33852244 -109.84128903 391.33852244 -132.37890625 411.3359375 C-136.68712248 410.86909699 -139.09848982 408.10098873 -142.02734375 405.19140625 C-142.56235504 404.66638016 -143.09736633 404.14135406 -143.64859009 403.60041809 C-144.78041609 402.48377394 -145.90820688 401.36302707 -147.03222656 400.23852539 C-148.72572405 398.5515118 -150.44158038 396.88992113 -152.16015625 395.22851562 C-159.57539597 387.93165614 -166.71907591 380.06781073 -168.17578125 369.3046875 C-168.05319667 360.23342885 -166.11737285 354.04029029 -161.37890625 346.3359375 C-160.60504953 344.98349631 -159.83368391 343.629622 -159.06640625 342.2734375 C-158.50953125 341.3040625 -157.95265625 340.3346875 -157.37890625 339.3359375 C-155.02893919 332.28603633 -155.21597927 323.77384541 -158.37890625 317.0234375 C-160.38464934 313.52198313 -162.77129266 310.67042861 -165.50390625 307.7109375 C-172.0996861 300.5551386 -172.98881993 294.41375914 -172.7109375 284.71875 C-171.81852914 275.62668369 -166.43076137 269.4900151 -160.921875 262.55859375 C-158.65701983 259.70821963 -156.48875023 256.80387317 -154.37890625 253.8359375 C-153.84265625 253.083125 -153.30640625 252.3303125 -152.75390625 251.5546875 C-148.0212303 243.91786949 -148.34005857 235.35920032 -150.12060547 226.74951172 C-151.09802784 223.22284626 -152.17441836 219.75015618 -153.31640625 216.2734375 C-154.05619386 213.92886019 -154.79453405 211.58382555 -155.53125 209.23828125 C-155.86116943 208.22241943 -156.19108887 207.20655762 -156.53100586 206.15991211 C-159.17696731 197.34740532 -159.54850167 189.21028105 -155.6796875 180.71484375 C-149.99822087 170.32441378 -140.8895535 166.63329483 -130.49609375 162.0703125 C-123.00793088 158.63537541 -118.17640593 154.40909362 -114.81225586 146.78588867 C-113.09237509 142.08396058 -112.95485627 137.74679127 -112.97265625 132.78125 C-112.96182007 131.88082977 -112.95098389 130.98040955 -112.93981934 130.05270386 C-112.90580037 127.18870913 -112.89004146 124.32510666 -112.87890625 121.4609375 C-112.74018421 86.44266823 -105.27178163 56.38720387 -80.12890625 30.6484375 C-58.17963624 8.95472586 -30.28191627 0.02601372 0 0 Z " fill="#585966" transform="translate(172.37890625,-0.3359375)"/>
<path d="M0 0 C1.78291027 -0.00514274 3.56581545 -0.0124267 5.34870911 -0.02168274 C10.17519019 -0.04015839 15.00111712 -0.02728295 19.82757497 -0.00759244 C24.88517323 0.00882451 29.94273724 -0.00002296 35.00035095 -0.00511169 C43.49153469 -0.00962883 51.98249786 0.00621467 60.47363281 0.03417969 C70.28378654 0.06624014 80.09354275 0.06621058 89.90372473 0.04896492 C99.35123103 0.03309018 108.79859189 0.03983884 118.24609184 0.05690193 C122.26230184 0.06376577 126.27839503 0.06274684 130.29460335 0.05535698 C135.02503838 0.04768436 139.75502205 0.05985218 144.48538017 0.08720589 C146.21915726 0.09408015 147.95297658 0.09419797 149.68675232 0.08699036 C152.05782745 0.07827064 154.42751754 0.09429239 156.79847717 0.11643982 C157.82193579 0.10407867 157.82193579 0.10407867 158.86607033 0.0914678 C164.19389306 0.18301025 167.17886531 1.73073146 171.49584961 4.63110352 C175.58253882 9.04042609 176.62160504 12.19250538 176.61610413 18.11698914 C176.61816612 19.82704132 176.61816612 19.82704132 176.62026978 21.57164001 C176.6166745 22.82320389 176.61307922 24.07476776 176.609375 25.36425781 C176.60952103 26.68142792 176.60966705 27.99859802 176.6098175 29.35568237 C176.61010476 32.96903945 176.60421956 36.58236343 176.59724355 40.1957128 C176.59099814 43.97135994 176.59040527 47.7470078 176.58921814 51.5226593 C176.58610834 58.67305052 176.57789966 65.82342648 176.56786865 72.97381097 C176.55669664 81.11398958 176.55119432 89.25416891 176.54617321 97.39435327 C176.53571677 114.13994563 176.51812409 130.88552262 176.49584961 147.63110352 C177.08076172 147.62062988 177.66567383 147.61015625 178.26831055 147.59936523 C180.92744624 147.55770087 183.58651314 147.5317445 186.24584961 147.50610352 C187.16624023 147.4893457 188.08663086 147.47258789 189.03491211 147.45532227 C189.92436523 147.44887695 190.81381836 147.44243164 191.73022461 147.43579102 C192.54716797 147.42531738 193.36411133 147.41484375 194.20581055 147.40405273 C196.7837858 147.65965156 198.32188279 148.23272347 200.49584961 149.63110352 C202.62397053 152.82328489 202.79446191 154.73529784 202.95678711 158.49829102 C202.228598 161.86770842 201.03462038 163.27524032 198.49584961 165.63110352 C195.19179662 166.39400048 191.92901175 166.30101381 188.55078125 166.2592926 C187.01855596 166.26993418 187.01855596 166.26993418 185.45537663 166.28079075 C182.02187385 166.2984366 178.58949322 166.2802315 175.15600586 166.26220703 C172.6988778 166.2673433 170.24175341 166.27462235 167.78463745 166.28388977 C161.79722734 166.30052029 155.81025955 166.29374441 149.82288718 166.27580155 C144.95743235 166.26178302 140.09206611 166.25788111 135.22659302 166.26124382 C134.53444956 166.26172126 133.8423061 166.2621987 133.1291886 166.26269061 C131.72316764 166.26371693 130.3171467 166.26477229 128.91112578 166.26585638 C116.47478353 166.27442646 104.03859883 166.25773855 91.60229492 166.22802734 C79.53126406 166.19918914 67.46046016 166.19210595 55.3894043 166.20751953 C42.24882154 166.22427579 29.10834659 166.22832182 15.96776104 166.21080917 C14.56687611 166.20896476 13.16599116 166.20713003 11.7651062 166.2053051 C10.73117905 166.20393696 10.73117905 166.20393696 9.67636448 166.20254119 C4.81605435 166.19693219 -0.04420321 166.20024634 -4.9045105 166.20685005 C-11.44462294 166.21538322 -17.98445594 166.2024427 -24.52453232 166.17500114 C-26.92878114 166.16809817 -29.33306049 166.16803967 -31.7373085 166.17521667 C-35.01160255 166.18386657 -38.28487379 166.16803003 -41.55908203 166.14576721 C-42.51743926 166.15400798 -43.47579649 166.16224875 -44.46319485 166.17073923 C-50.89162395 166.08969903 -50.89162395 166.08969903 -54.06712341 163.71221828 C-56.42809509 160.29303889 -56.42809509 160.29303889 -56.50415039 157.63110352 C-55.20985297 154.05637731 -54.20684962 151.33380274 -51.50415039 148.63110352 C-49.25756836 148.40405273 -49.25756836 148.40405273 -46.49633789 148.43579102 C-45.51020508 148.44223633 -44.52407227 148.44868164 -43.50805664 148.45532227 C-41.95924805 148.48045898 -41.95924805 148.48045898 -40.37915039 148.50610352 C-39.33887695 148.51512695 -38.29860352 148.52415039 -37.22680664 148.53344727 C-34.65235947 148.55706605 -32.07836827 148.59000203 -29.50415039 148.63110352 C-29.50783756 147.93664847 -29.51152473 147.24219343 -29.51532364 146.5266943 C-29.60372106 129.61689567 -29.66988249 112.70717038 -29.71139908 95.79719448 C-29.73201066 87.61959464 -29.76010425 79.44214918 -29.8059082 71.26464844 C-29.84581915 64.13583285 -29.87159342 57.00712909 -29.88050437 49.87820488 C-29.88571197 46.10461554 -29.89792198 42.33134608 -29.92707062 38.55785942 C-29.95430733 35.00293885 -29.96257895 31.44846861 -29.95658112 27.8934536 C-29.95819887 25.97317117 -29.97967846 24.05293731 -30.00183105 22.13278198 C-29.96499191 14.40172304 -29.52521144 9.86126002 -24.07442951 4.12703705 C-17.37668065 -1.28149899 -8.12611428 -0.05948372 0 0 Z " fill="#CBE3FA" transform="translate(309.504150390625,346.368896484375)"/>
<path d="M0 0 C0.33 0 0.66 0 1 0 C1 43.89 1 87.78 1 133 C-6.26 133.33 -13.52 133.66 -21 134 C-23.90562628 137.80066842 -23.90562628 137.80066842 -25 142 C-53.59806591 142.0700351 -82.196119 142.12296122 -110.79425335 142.15543652 C-124.07241874 142.17091515 -137.35053089 142.19202374 -150.62866211 142.22631836 C-162.19987756 142.25619017 -173.77105445 142.27556775 -185.34230739 142.28226548 C-191.47100236 142.28618149 -197.59958702 142.29540543 -203.72824669 142.31719017 C-209.49425365 142.33752019 -215.26010464 142.34384082 -221.02614403 142.33932304 C-223.1445653 142.3401498 -225.26299167 142.34613608 -227.38138199 142.35761642 C-230.27000634 142.37250585 -233.15803906 142.36896644 -236.04667664 142.36076355 C-236.88812105 142.36950207 -237.72956547 142.3782406 -238.5965082 142.38724393 C-243.215873 142.35170089 -246.248034 142.00179468 -250 139 C-251.36637156 136.26725688 -251.14989704 134.07164608 -251.17700195 131.01245117 C-251.18983719 129.75321335 -251.20267242 128.49397552 -251.21589661 127.19657898 C-251.22407129 125.81204626 -251.23151361 124.42750906 -251.23828125 123.04296875 C-251.24235678 122.3439123 -251.2464323 121.64485584 -251.25063133 120.92461586 C-251.2715167 117.21382569 -251.28579924 113.5030726 -251.29516602 109.79223633 C-251.30614566 105.99086344 -251.34043797 102.19008977 -251.38033772 98.38892651 C-251.40673886 95.44172729 -251.41487912 92.49466457 -251.41844749 89.54735756 C-251.42326504 88.14856298 -251.43473771 86.74977244 -251.45348549 85.3510952 C-251.61312933 72.63490058 -249.32075128 59.74016175 -242 49 C-240.515 48.505 -240.515 48.505 -239 48 C-237.42514213 46.3704899 -237.42514213 46.3704899 -235.875 44.375 C-222.87367715 29.20679001 -203.25177842 24.46658916 -185 18.25 C-181.64308977 17.09987158 -178.2868426 15.94783326 -174.9309082 14.79486084 C-172.85593684 14.08269926 -170.78028306 13.37252201 -168.70385742 12.66461182 C-167.76517822 12.34377625 -166.82649902 12.02294067 -165.859375 11.69238281 C-165.03920898 11.41291809 -164.21904297 11.13345337 -163.37402344 10.84552002 C-160.88813306 9.96015804 -158.44383618 8.99501567 -156 8 C-155.5153125 8.89460938 -155.030625 9.78921875 -154.53125 10.7109375 C-143.51324521 30.7323056 -128.69987067 44.85913291 -106.4309082 51.49121094 C-104.62503129 52.00980792 -102.81275531 52.50598335 -101 53 C-100.38511719 53.18030762 -99.77023438 53.36061523 -99.13671875 53.54638672 C-94.36207557 54.56001641 -89.3605674 54.22825249 -84.5 54.25 C-83.37851563 54.270625 -82.25703125 54.29125 -81.1015625 54.3125 C-60.20430242 54.40902314 -42.51796489 45.4402768 -27.38671875 31.44921875 C-20.65608599 24.54233375 -16.03385673 16.69800357 -12 8 C-8.04 9.65 -4.08 11.3 0 13 C0 8.71 0 4.42 0 0 Z " fill="#FE6D7A" transform="translate(279,362)"/>
<path d="M0 0 C1.82273706 0.00373712 3.64547614 0.00658078 5.46821594 0.00857544 C10.23076063 0.01615689 14.99318042 0.03575728 19.75567627 0.0579834 C24.62941804 0.07856103 29.50318029 0.08760247 34.37695312 0.09765625 C43.91411692 0.11900913 53.45118864 0.15307759 62.98828125 0.1953125 C61.99828125 0.8553125 61.00828125 1.5153125 59.98828125 2.1953125 C60.97828125 3.21625 60.97828125 3.21625 61.98828125 4.2578125 C64.51045481 7.96225492 64.60699679 9.78696426 63.98828125 14.1953125 C61.86225951 18.21956793 60.20317048 20.50706896 55.98828125 22.1953125 C53.97575378 22.45359802 53.97575378 22.45359802 51.82495117 22.46655273 C51.01277634 22.47673935 50.2006015 22.48692596 49.36381531 22.49742126 C48.49094376 22.49956131 47.6180722 22.50170135 46.71875 22.50390625 C44.8404922 22.52910435 42.96223706 22.55450171 41.08398438 22.58007812 C38.14657549 22.60856829 35.20921404 22.63259608 32.27172852 22.65161133 C16.6335255 22.77244656 2.35792689 23.81052382 -12.26171875 29.9453125 C-13.53764893 30.4702832 -13.53764893 30.4702832 -14.83935547 31.00585938 C-25.47727828 35.5025315 -34.18150497 41.82475763 -43.01171875 49.1953125 C-43.98753906 49.96746094 -44.96335938 50.73960938 -45.96875 51.53515625 C-49.21122131 54.24657308 -51.80355012 57.29944923 -54.38671875 60.6328125 C-54.86004639 61.24189453 -55.33337402 61.85097656 -55.82104492 62.47851562 C-60.56089195 68.71393379 -64.45012555 75.22902448 -68.01171875 82.1953125 C-68.55570312 83.2575 -69.0996875 84.3196875 -69.66015625 85.4140625 C-71.31696828 88.9463521 -72.7324922 92.5137021 -74.01171875 96.1953125 C-74.25051758 96.8670752 -74.48931641 97.53883789 -74.73535156 98.23095703 C-80.08576871 114.21342774 -79.63353996 130.85708675 -79.64770508 147.51782227 C-79.65291672 148.48081238 -79.65812836 149.44380249 -79.66349792 150.43597412 C-79.67142531 152.24956384 -79.66681809 154.06327206 -79.64692688 155.87677002 C-79.68885377 164.84009761 -81.85538114 171.88518422 -88.08203125 178.421875 C-93.1564124 183.08537508 -98.73016636 185.53201983 -105.07421875 188.1328125 C-114.74543913 192.23043736 -119.49927887 196.31613238 -123.8984375 206.015625 C-128.24368819 218.42627082 -122.43212561 231.75812127 -118.15844727 243.54956055 C-116.4458192 248.3493118 -115.57977213 252.47372454 -115.57421875 257.6328125 C-115.55488281 258.82777344 -115.53554687 260.02273438 -115.515625 261.25390625 C-116.68508136 270.5450989 -120.91310684 276.99954655 -127.01171875 283.8828125 C-135.47712276 293.59677506 -139.49634401 300.65905226 -139.34765625 313.84765625 C-138.48308892 322.46317027 -133.46640709 327.9856801 -127.81640625 334.13671875 C-122.31266522 340.41479564 -122.53937662 346.50793994 -122.73046875 354.60546875 C-123.31775983 362.10158689 -126.22679969 366.92231898 -130.609375 372.921875 C-134.8612405 379.81487144 -134.76278209 387.34491233 -134.01171875 395.1953125 C-132.7562232 399.1631522 -130.98105011 402.22598114 -128.01171875 405.1953125 C-129.66171875 407.1753125 -131.31171875 409.1553125 -133.01171875 411.1953125 C-137.31993498 410.72847199 -139.73130232 407.96036373 -142.66015625 405.05078125 C-143.19516754 404.52575516 -143.73017883 404.00072906 -144.28140259 403.45979309 C-145.41322859 402.34314894 -146.54101938 401.22240207 -147.66503906 400.09790039 C-149.35853655 398.4108868 -151.07439288 396.74929613 -152.79296875 395.08789062 C-160.20820847 387.79103114 -167.35188841 379.92718573 -168.80859375 369.1640625 C-168.68600917 360.09280385 -166.75018535 353.89966529 -162.01171875 346.1953125 C-161.23786203 344.84287131 -160.46649641 343.488997 -159.69921875 342.1328125 C-159.14234375 341.1634375 -158.58546875 340.1940625 -158.01171875 339.1953125 C-155.66175169 332.14541133 -155.84879177 323.63322041 -159.01171875 316.8828125 C-161.01746184 313.38135813 -163.40410516 310.52980361 -166.13671875 307.5703125 C-172.7324986 300.4145136 -173.62163243 294.27313414 -173.34375 284.578125 C-172.45134164 275.48605869 -167.06357387 269.3493901 -161.5546875 262.41796875 C-159.28983233 259.56759463 -157.12156273 256.66324817 -155.01171875 253.6953125 C-154.47546875 252.9425 -153.93921875 252.1896875 -153.38671875 251.4140625 C-148.6540428 243.77724449 -148.97287107 235.21857532 -150.75341797 226.60888672 C-151.73084034 223.08222126 -152.80723086 219.60953118 -153.94921875 216.1328125 C-154.68900636 213.78823519 -155.42734655 211.44320055 -156.1640625 209.09765625 C-156.49398193 208.08179443 -156.82390137 207.06593262 -157.16381836 206.01928711 C-159.80977981 197.20678032 -160.18131417 189.06965605 -156.3125 180.57421875 C-150.63103337 170.18378878 -141.522366 166.49266983 -131.12890625 161.9296875 C-123.64074338 158.49475041 -118.80921843 154.26846862 -115.44506836 146.64526367 C-113.72518759 141.94333558 -113.58766877 137.60616627 -113.60546875 132.640625 C-113.59463257 131.74020477 -113.58379639 130.83978455 -113.57263184 129.91207886 C-113.53861287 127.04808413 -113.52285396 124.18448166 -113.51171875 121.3203125 C-113.37299671 86.30204323 -105.90459413 56.24657887 -80.76171875 30.5078125 C-58.58530135 8.58959819 -30.56289875 -0.1853503 0 0 Z " fill="#6E6F7F" transform="translate(173.01171875,-0.1953125)"/>
<path d="M0 0 C0.08636719 1.09957031 0.17273438 2.19914062 0.26171875 3.33203125 C1.08123087 12.42603868 2.36882785 19.96935042 7 28 C7.5053125 28.92296875 8.010625 29.8459375 8.53125 30.796875 C13.80871955 39.80840319 21.09020298 46.60722812 30 52 C28.11899963 64.82291716 15.66695607 76.69930671 5.6875 84.3125 C-13.89589305 97.76032356 -36.02052336 102.43473821 -59.55078125 98.3515625 C-81.09680027 93.02762538 -98.53127228 79.83533251 -110.0625 61.125 C-110.46952148 60.46991455 -110.87654297 59.8148291 -111.29589844 59.13989258 C-112.28215644 57.47401552 -113.15095187 55.73981852 -114 54 C-112.77352518 50.32057555 -111.7188366 49.95920756 -108.5 47.9375 C-96.15942435 39.48746246 -88.53347562 27.49213504 -85 13 C-84.73227983 10.8607643 -84.52001395 8.71354031 -84.375 6.5625 C-84.30023438 5.51191406 -84.22546875 4.46132813 -84.1484375 3.37890625 C-84.09945312 2.59386719 -84.05046875 1.80882812 -84 1 C-80.92839973 1.56233096 -78.10418558 2.27010485 -75.1875 3.375 C-52.45612279 10.91498296 -24.63766773 11.15014449 -2.74780273 0.79589844 C-1 0 -1 0 0 0 Z " fill="#DFB6A2" transform="translate(237,318)"/>
<path d="M0 0 C1.79426026 0.00141161 3.5885234 0.00061628 5.38278198 -0.00221252 C10.23778032 -0.00364366 15.09215759 0.02569714 19.94701195 0.06065726 C25.02653202 0.0919712 30.10606725 0.09485548 35.18566895 0.1007843 C44.79743296 0.11630793 54.4089117 0.15731643 64.02055025 0.20753175 C74.96607363 0.26347124 85.91161083 0.29092331 96.85724163 0.31600893 C119.36657428 0.36823352 141.87565395 0.45614709 164.38476562 0.56762695 C164.38476562 1.22762695 164.38476562 1.88762695 164.38476562 2.56762695 C165.02414062 2.85637695 165.66351563 3.14512695 166.32226562 3.44262695 C168.38476562 4.56762695 168.38476562 4.56762695 169.38476562 6.56762695 C169.91594735 10.36178215 170.2356591 14.03093874 168.33789062 17.45825195 C166.56365699 19.60820565 164.89205317 21.31398318 162.38476562 22.56762695 C160.44711431 22.66485776 158.50606698 22.69667398 156.565979 22.69892883 C155.32660583 22.70293701 154.08723267 22.70694519 152.81030273 22.71107483 C151.4291992 22.7105997 150.04809568 22.71006358 148.66699219 22.70947266 C147.21832167 22.71250346 145.76965211 22.71602469 144.32098389 22.72000122 C141.19655501 22.72789755 138.07213759 22.73303793 134.9477005 22.73629189 C130.00593056 22.74219677 125.06423284 22.75873276 120.12249756 22.77763367 C118.4312325 22.78397133 116.73996739 22.79029695 115.04870224 22.79661083 C114.20160926 22.79977664 113.35451629 22.80294245 112.48175383 22.8062042 C100.97450241 22.84829072 89.46728417 22.88125076 77.95996094 22.89355469 C70.2014959 22.90193556 62.44320914 22.92442853 54.68483329 22.96291035 C50.57882089 22.98267301 46.47307502 22.99507502 42.36701202 22.99007607 C38.50255201 22.98542874 34.63859684 22.99923906 30.77423859 23.02708817 C29.35772356 23.03399903 27.94115633 23.03412755 26.52464294 23.02688789 C16.58312598 22.75312042 16.58312598 22.75312042 8.38476562 27.56762695 C4.645645 31.71097683 3.2696176 34.67453646 3.22654724 40.2183075 C3.21186401 41.6506926 3.21186401 41.6506926 3.19688416 43.11201477 C3.19112869 44.1578624 3.18537323 45.20371002 3.17944336 46.28125 C3.16954376 47.38384155 3.15964417 48.48643311 3.14944458 49.62243652 C3.11780284 53.27471758 3.09306148 56.92701165 3.06835938 60.5793457 C3.04779217 63.10854942 3.02679576 65.63774968 3.00538635 68.16694641 C2.95579128 74.14858129 2.91053218 80.13023386 2.86736399 86.11191732 C2.8179759 92.92204607 2.7630636 99.73212677 2.7076844 106.54220903 C2.59389256 120.55063857 2.4877767 134.5591142 2.38476562 148.56762695 C-8.17523438 148.56762695 -18.73523438 148.56762695 -29.61523438 148.56762695 C-29.70558266 130.9563137 -29.77924417 113.34519869 -29.82248306 95.73371792 C-29.84309464 87.55611808 -29.87118824 79.37867262 -29.91699219 71.20117188 C-29.95690314 64.07235629 -29.9826774 56.94365253 -29.99158835 49.81472832 C-29.99679595 46.04113898 -30.00900596 42.26786952 -30.0381546 38.49438286 C-30.06539132 34.93946228 -30.07366293 31.38499205 -30.0676651 27.82997704 C-30.06928285 25.90969461 -30.09076244 23.98946075 -30.11291504 22.06930542 C-30.07604543 14.33185416 -29.62918927 9.80815607 -24.18941879 4.06132889 C-17.47588124 -1.37627465 -8.14684915 -0.08970536 0 0 Z " fill="#EDF6FE" transform="translate(309.615234375,346.432373046875)"/>
<path d="M0 0 C1.29550781 0.06477539 1.29550781 0.06477539 2.6171875 0.13085938 C3.95136719 0.23817383 3.95136719 0.23817383 5.3125 0.34765625 C6.64667969 0.40276367 6.64667969 0.40276367 8.0078125 0.45898438 C13.2383084 0.79076956 16.66492591 1.31375957 20.3125 5.41015625 C22.96413013 9.91463352 22.82721842 15.12469474 23.1875 20.22265625 C25.64941856 49.55270142 37.93897731 76.87823425 60.3125 96.41015625 C71.64807018 105.36480746 84.34625996 111.86228938 97.97265625 116.5546875 C102.44073307 118.18825816 106.13795396 120.00827872 109.25 123.72265625 C110.84245188 127.75062278 111.19563994 131.20909978 109.55078125 135.30859375 C107.6493579 138.87094421 105.823937 141.44259073 102.3125 143.41015625 C99.52464395 143.74041454 97.0349194 143.88557271 94.25 143.84765625 C93.45851563 143.83935791 92.66703125 143.83105957 91.8515625 143.82250977 C63.91898461 143.04996504 39.09023379 130.63589494 19.3125 111.41015625 C4.05750268 95.23756511 -9.51697147 70.46090428 -9.88037109 47.60742188 C-9.89643402 46.68296265 -9.91249695 45.75850342 -9.92904663 44.80603027 C-9.97377394 40.61304788 -10.01450685 36.42021578 -10.03759766 32.22705078 C-10.05420002 30.01568103 -10.08154571 27.80436585 -10.11962891 25.59326172 C-10.17434305 22.39652833 -10.1962576 19.20104447 -10.2109375 16.00390625 C-10.23360687 15.01733032 -10.25627625 14.03075439 -10.27963257 13.01428223 C-10.26538469 8.39273324 -10.1939296 6.11934538 -7.44775391 2.27368164 C-4.5608599 0.32465794 -3.41195202 -0.18645895 0 0 Z " fill="#F1D0C1" transform="translate(98.6875,183.58984375)"/>
<path d="M0 0 C2.77557102 3.56347505 5.19493781 7.32312851 7.625 11.125 C8.03234375 11.75792969 8.4396875 12.39085937 8.859375 13.04296875 C12.11265311 18.11678991 13.19055724 19.79878257 12.05859375 25.83203125 C9.23241979 31.61995208 4.31033801 33.41748674 -1.47265625 35.4296875 C-3.99935402 36.25824319 -6.52680305 37.0753319 -9.0625 37.875 C-27.60372275 43.75836474 -43.96086519 51.45067274 -54 69 C-58.38102143 78.00100768 -60.1228859 85.76185156 -60.17578125 95.6875 C-60.19896797 97.37240849 -60.22308483 99.05730438 -60.24804688 100.7421875 C-60.28318604 103.37541315 -60.31254153 106.00816956 -60.32592773 108.64160156 C-60.34144092 111.19912984 -60.38164822 113.75532603 -60.42578125 116.3125 C-60.42387283 117.09391357 -60.42196442 117.87532715 -60.41999817 118.68041992 C-60.54696086 124.38509582 -61.87301386 127.87301386 -66 132 C32.01 132.495 32.01 132.495 132 133 C132 133.33 132 133.66 132 134 C103.40193409 134.0700351 74.803881 134.12296122 46.20574665 134.15543652 C32.92758126 134.17091515 19.64946911 134.19202374 6.37133789 134.22631836 C-5.19987756 134.25619017 -16.77105445 134.27556775 -28.34230739 134.28226548 C-34.47100236 134.28618149 -40.59958702 134.29540543 -46.72824669 134.31719017 C-52.49425365 134.33752019 -58.26010464 134.34384082 -64.02614403 134.33932304 C-66.1445653 134.3401498 -68.26299167 134.34613608 -70.38138199 134.35761642 C-73.27000634 134.37250585 -76.15803906 134.36896644 -79.04667664 134.36076355 C-79.88812105 134.36950207 -80.72956547 134.3782406 -81.5965082 134.38724393 C-86.215873 134.35170089 -89.248034 134.00179468 -93 131 C-94.36637156 128.26725688 -94.14989704 126.07164608 -94.17700195 123.01245117 C-94.18983719 121.75321335 -94.20267242 120.49397552 -94.21589661 119.19657898 C-94.22407129 117.81204626 -94.23151361 116.42750906 -94.23828125 115.04296875 C-94.24235678 114.3439123 -94.2464323 113.64485584 -94.25063133 112.92461586 C-94.2715167 109.21382569 -94.28579924 105.5030726 -94.29516602 101.79223633 C-94.30614566 97.99086344 -94.34043797 94.19008977 -94.38033772 90.38892651 C-94.40673886 87.44172729 -94.41487912 84.49466457 -94.41844749 81.54735756 C-94.42326504 80.14856298 -94.43473771 78.74977244 -94.45348549 77.3510952 C-94.61312933 64.63490058 -92.32075128 51.74016175 -85 41 C-83.515 40.505 -83.515 40.505 -82 40 C-80.42514213 38.3704899 -80.42514213 38.3704899 -78.875 36.375 C-65.85703201 21.18737068 -46.21458746 16.46121415 -27.9375 10.25 C-24.57003778 9.10062811 -21.20327518 7.94927945 -17.83753967 6.79486084 C-15.75632758 6.0815189 -13.67404207 5.37129899 -11.59056091 4.66461182 C-10.65180618 4.34377625 -9.71305145 4.02294067 -8.74584961 3.69238281 C-7.92346298 3.41291809 -7.10107635 3.13345337 -6.25376892 2.84552002 C-4.07941696 2.02979393 -2.05476494 1.07869039 0 0 Z " fill="#FD8B94" transform="translate(122,370)"/>
<path d="M0 0 C0.52980469 0.37253906 1.05960938 0.74507812 1.60546875 1.12890625 C2.96671875 2.02609375 2.96671875 2.02609375 4.35546875 2.94140625 C7.26587752 5.77097033 8.78907242 8.4961136 10.60546875 12.12890625 C10.60546875 12.78890625 10.60546875 13.44890625 10.60546875 14.12890625 C15.14868758 14.22256701 19.68647231 14.21602889 24.23046875 14.19140625 C25.51566406 14.21912109 26.80085938 14.24683594 28.125 14.27539062 C34.98314189 14.40695687 34.98314189 14.40695687 40.67797852 11.17724609 C42.14451808 8.88506274 43.3629087 6.54688281 44.60546875 4.12890625 C47.0546875 1.97265625 47.0546875 1.97265625 49.29296875 0.62890625 C50.03933594 0.16484375 50.78570312 -0.29921875 51.5546875 -0.77734375 C57.7896181 -4.10264007 66.4337592 -4.11744041 73.12890625 -2.1171875 C75.08490694 -1.16166992 76.82569305 -0.12127765 78.60546875 1.12890625 C79.49234375 1.70640625 80.37921875 2.28390625 81.29296875 2.87890625 C86.74058502 8.17928965 89.72946145 14.08166428 89.91796875 21.69140625 C89.81189496 29.019337 88.49329369 34.79854625 83.6171875 40.421875 C77.77893517 45.95762721 72.25632943 49.13943939 64.16796875 49.50390625 C55.5139539 49.11796391 49.94240479 46.09809076 43.55078125 40.359375 C41.32331711 37.80539504 40.00074204 35.2046502 38.60546875 32.12890625 C34.23161076 31.86679737 29.85977066 31.70745739 25.48046875 31.56640625 C24.24296875 31.49099609 23.00546875 31.41558594 21.73046875 31.33789062 C15.07939225 30.96755554 15.07939225 30.96755554 9.54003906 34.05151367 C7.95558037 36.39414814 7.95558037 36.39414814 6.82080078 38.84423828 C4.2736177 43.63261499 -0.54885984 46.26497495 -5.33203125 48.50390625 C-12.70137028 50.00785299 -19.62803674 49.58785439 -26.39453125 46.12890625 C-33.28711135 41.50055536 -37.59903505 36.30313895 -39.39453125 28.12890625 C-40.54926445 19.73488411 -39.31887076 13.08748172 -34.39453125 6.12890625 C-25.85579887 -3.46449141 -11.41432673 -6.9848865 0 0 Z " fill="#EDF6FE" transform="translate(169.39453125,178.87109375)"/>
<path d="M0 0 C0.91900656 -0.0091507 1.83801312 -0.0183014 2.78486836 -0.02772939 C4.51612446 -0.04525605 6.24732686 -0.07047911 7.97832954 -0.10489714 C15.27370884 -0.1630148 15.27370884 -0.1630148 18.26064682 2.07395554 C20.38876774 5.26613691 20.55925912 7.17814986 20.72158432 10.94114304 C19.99339521 14.31056044 18.79941759 15.71809234 16.26064682 18.07395554 C12.95659383 18.8368525 9.69380896 18.74386583 6.31557846 18.70214462 C4.78335317 18.7127862 4.78335317 18.7127862 3.22017384 18.72364277 C-0.21332893 18.74128862 -3.64570957 18.72308352 -7.07919693 18.70505905 C-9.53632499 18.71019532 -11.99344938 18.71747437 -14.45056534 18.72674179 C-20.43797545 18.74337231 -26.42494324 18.73659643 -32.41231561 18.71865357 C-37.27777044 18.70463504 -42.14313668 18.70073313 -47.00860977 18.70409584 C-47.70075323 18.70457328 -48.39289669 18.70505072 -49.10601419 18.70554264 C-50.51203515 18.70656895 -51.91805609 18.70762431 -53.32407701 18.7087084 C-65.76041926 18.71727848 -78.19660396 18.70059057 -90.63290787 18.67087936 C-102.70393873 18.64204116 -114.77474262 18.63495797 -126.84579849 18.65037155 C-139.98638125 18.66712781 -153.1268562 18.67117384 -166.26744175 18.65366119 C-167.66832668 18.65181678 -169.06921163 18.64998205 -170.47009659 18.64815712 C-171.15938136 18.64724503 -171.84866612 18.64633294 -172.55883831 18.64539321 C-177.41914844 18.63978421 -182.279406 18.64309836 -187.13971329 18.64970207 C-193.67982573 18.65823524 -200.21965873 18.64529472 -206.75973511 18.61785316 C-209.16398393 18.61095019 -211.56826327 18.61089169 -213.97251129 18.6180687 C-217.24680534 18.62671859 -220.52007657 18.61088205 -223.79428482 18.58861923 C-225.23182066 18.60098038 -225.23182066 18.60098038 -226.69839764 18.61359125 C-233.12682674 18.53255105 -233.12682674 18.53255105 -236.3023262 16.1550703 C-238.66329788 12.73589091 -238.66329788 12.73589091 -238.73935318 10.07395554 C-237.44505576 6.49922933 -236.44205241 3.77665476 -233.73935318 1.07395554 C-230.78849175 0.86806885 -227.93037336 0.78889866 -224.97766495 0.79548264 C-224.05901748 0.78969023 -223.14037 0.78389783 -222.19388473 0.7779299 C-219.09588748 0.76083956 -215.9980384 0.75804546 -212.89999771 0.75510788 C-210.68587246 0.74581466 -208.47175073 0.7356469 -206.25763321 0.7246666 C-200.22355085 0.69725149 -194.189492 0.6821778 -188.15536356 0.66923857 C-181.83322503 0.65362116 -175.51113422 0.62681539 -169.18902969 0.60120773 C-158.55103204 0.5596453 -147.91303441 0.52509937 -137.27499771 0.49583054 C-126.36677462 0.46580008 -115.45857908 0.43148537 -104.55038834 0.39133835 C-103.88118685 0.3888768 -103.21198537 0.38641525 -102.52250506 0.38387911 C-99.83137934 0.37396095 -97.14025375 0.3640071 -94.44912834 0.35400715 C-72.6020464 0.27282576 -50.75494854 0.19827877 -28.90781021 0.13401413 C-27.33882351 0.12926229 -27.33882351 0.12926229 -25.73814011 0.12441444 C-24.22174564 0.11985332 -24.22174564 0.11985332 -22.67471695 0.11520004 C-21.68976045 0.11218266 -20.70480396 0.10916527 -19.6900003 0.10605645 C-17.78323038 0.10106809 -15.87645629 0.09744968 -13.96968102 0.09533095 C-9.31241267 0.08977528 -4.65686421 0.06374141 0 0 Z " fill="#B5D4F4" transform="translate(491.73935317993164,493.9260444641113)"/>
<path d="M0 0 C0.52851563 0.37125 1.05703125 0.7425 1.6015625 1.125 C2.4884375 1.7025 3.3753125 2.28 4.2890625 2.875 C9.73667877 8.1753834 12.7255552 14.07775803 12.9140625 21.6875 C12.80798871 29.01543075 11.48938744 34.79464 6.61328125 40.41796875 C0.77502892 45.95372096 -4.74757682 49.13553314 -12.8359375 49.5 C-21.28165324 49.12334715 -27.34348417 46.27444385 -33.4453125 40.41796875 C-38.75578638 34.18347241 -40.15443963 27.14315526 -39.84375 19.0859375 C-38.73374953 11.70540808 -35.13878706 5.78498059 -29.19140625 1.30859375 C-20.66126927 -4.32241171 -8.99711147 -5.51312362 0 0 Z " fill="#EDF6FE" transform="translate(246.3984375,178.875)"/>
<path d="M0 0 C1.92867748 13.93994617 1.92867748 13.93994617 -0.8125 17.6875 C-5.00977588 20.7325825 -9.00488972 21.82190795 -14 23 C-15.19625 23.37125 -16.3925 23.7425 -17.625 24.125 C-36.74415101 29.08181693 -63.48160681 28.93657753 -81 19 C-82.375 16.8125 -82.375 16.8125 -83 15 C-83.66 15 -84.32 15 -85 15 C-84.67 10.38 -84.34 5.76 -84 1 C-80.68875732 1.66224854 -78.2262739 2.22385551 -75.1875 3.375 C-52.45612279 10.91498296 -24.63766773 11.15014449 -2.74780273 0.79589844 C-1 0 -1 0 0 0 Z " fill="#C69A83" transform="translate(237,318)"/>
<path d="M0 0 C4.94883109 1.16443084 7.64188352 4.22862705 11.1875 7.75 C12.11691406 8.65363281 13.04632813 9.55726563 14.00390625 10.48828125 C25.90082259 22.16024346 25.90082259 22.16024346 26.875 27.5625 C26.52306599 33.14168923 22.95387 35.96534665 19.1875 39.75 C18.08633356 40.93957379 16.9903902 42.13399426 15.8984375 43.33203125 C11.05118685 48.63845254 11.05118685 48.63845254 8.98046875 50.87109375 C8.4908667 51.4014624 8.00126465 51.93183105 7.49682617 52.47827148 C5.29970996 54.61229691 3.98641616 54.77276421 0.875 55.125 C-2.8125 54.75 -2.8125 54.75 -5.75 52.6875 C-7.8125 49.75 -7.8125 49.75 -8.5625 46.4375 C-7.48449341 41.13730096 -4.51213842 38.530868 -0.8125 34.75 C0.34375757 33.42569632 1.49049915 32.09298907 2.625 30.75 C3.470625 29.76 4.31625 28.77 5.1875 27.75 C3.90552734 26.37714844 3.90552734 26.37714844 2.59765625 24.9765625 C1.48165079 23.77615326 0.36577192 22.57562632 -0.75 21.375 C-1.31396484 20.77171875 -1.87792969 20.1684375 -2.45898438 19.546875 C-2.99716797 18.96679688 -3.53535156 18.38671875 -4.08984375 17.7890625 C-4.58734131 17.25490723 -5.08483887 16.72075195 -5.59741211 16.17041016 C-7.58728327 13.84429595 -7.8334787 12.56468812 -8.1875 9.4375 C-7.8125 5.75 -7.8125 5.75 -5.6875 2.8125 C-2.8125 0.75 -2.8125 0.75 0 0 Z " fill="#FEFEFE" transform="translate(416.8125,397.25)"/>
<path d="M0 0 C3.73771257 2.60014787 4.8217186 4.24867124 5.875 8.6875 C5.5346051 14.86155916 0.16764291 18.94752512 -4 23 C-4.59167969 23.59167969 -5.18335938 24.18335938 -5.79296875 24.79296875 C-6.19128906 25.19128906 -6.58960938 25.58960938 -7 26 C-5.42921185 29.68233943 -3.13566869 32.25546115 -0.4375 35.1875 C0.36816406 36.06792969 1.17382812 36.94835937 2.00390625 37.85546875 C3.48328631 39.44574399 3.48328631 39.44574399 5 41 C5.52472964 45.24084775 5.68759225 48.82536325 3.5 52.5625 C-0.06241792 54.6108903 -3.06985391 55.0141904 -7 54 C-10.51473736 51.53190855 -13.33263089 48.51117179 -16.25 45.375 C-17.03890625 44.56675781 -17.8278125 43.75851562 -18.640625 42.92578125 C-28.31150068 32.87917898 -28.31150068 32.87917898 -29.6875 27.125 C-28.60312426 22.19601936 -25.44251271 19.5632018 -22 16 C-20.99792605 14.90411919 -19.99947179 13.8049218 -19.00390625 12.703125 C-17.94044648 11.53093935 -16.87664327 10.35906519 -15.8125 9.1875 C-15.30170898 8.62409912 -14.79091797 8.06069824 -14.26464844 7.48022461 C-6.41716362 -1.04770018 -6.41716362 -1.04770018 0 0 Z " fill="#FEFEFE" transform="translate(350,398)"/>
<path d="M0 0 C2.5625 1.9375 2.5625 1.9375 4 5 C4.23223666 13.23326692 1.69086134 21.62185098 -0.21875 29.57885742 C-0.75216798 31.82161527 -1.25896117 34.06942731 -1.765625 36.31835938 C-2.10775854 37.76080103 -2.45145397 39.20287331 -2.796875 40.64453125 C-2.94292175 41.309189 -3.08896851 41.97384674 -3.23944092 42.65864563 C-4.41327589 47.36738807 -6.23539605 49.96716498 -10 53 C-13.5 53.625 -13.5 53.625 -17 53 C-19.9375 50.9375 -19.9375 50.9375 -22 48 C-22.3785555 42.7618389 -21.55228335 37.95297093 -20.390625 32.87109375 C-20.22254333 32.11836685 -20.05446167 31.36563995 -19.88128662 30.59010315 C-19.5253392 29.00848716 -19.16543335 27.42775729 -18.80175781 25.84790039 C-18.25148304 23.44397878 -17.72284183 21.03595462 -17.1953125 18.62695312 C-16.84505721 17.0830362 -16.49353676 15.53940562 -16.140625 13.99609375 C-15.98627991 13.28343857 -15.83193481 12.57078339 -15.6729126 11.83653259 C-14.57672257 7.18967163 -12.92731796 3.76754004 -10 0 C-6.70966466 -1.64516767 -3.42243194 -0.9518006 0 0 Z " fill="#FDFEFE" transform="translate(392,399)"/>
<path d="M0 0 C1 1 1 1 1.328125 3.32421875 C1 6 1 6 -0.828125 7.95703125 C-1.62734375 8.56933594 -2.4265625 9.18164062 -3.25 9.8125 C-8.72407181 14.36561948 -11.54414867 19.04728944 -13 26 C-13.27473268 31.40307612 -12.73268192 35.82120193 -11.2421875 41.01953125 C-11 43 -11 43 -13 46 C-15.25 46.625 -15.25 46.625 -18 46 C-23.64577833 41.31882701 -26.46046423 35.33427072 -27.3515625 28.17578125 C-27.75433619 19.89772194 -25.92324838 13.40783012 -20.35546875 7.15234375 C-14.26574926 1.55749989 -8.18020787 -0.56415227 0 0 Z " fill="#FDFDFD" transform="translate(157,176)"/>
<path d="M0 0 C1 1 1 1 1.328125 3.32421875 C1 6 1 6 -0.828125 7.95703125 C-1.62734375 8.56933594 -2.4265625 9.18164062 -3.25 9.8125 C-8.70880511 14.35292124 -11.57272475 19.05213182 -13 26 C-13.27846371 30.19333593 -13.0486188 33.93660216 -12 38 C-11.92094936 40.33199388 -11.91201231 42.66832622 -12 45 C-13 46 -13 46 -15.1875 46.5 C-19.03318687 45.81632233 -20.30101935 44.06395439 -22.640625 41.04296875 C-27.18652092 34.21106195 -28.09696415 27.10708741 -27 19 C-24.28965932 10.42327751 -19.3075897 5.34959438 -11.5625 1.125 C-7.36191942 -0.20149913 -4.37724791 -0.30187917 0 0 Z " fill="#FEFDFE" transform="translate(234,176)"/>
<path d="M0 0 C8.91 0 17.82 0 27 0 C27 5.61 27 11.22 27 17 C18.09 17 9.18 17 0 17 C0 11.39 0 5.78 0 0 Z " fill="#B5D4F4" transform="translate(181,193)"/>
</svg>
